<svg width="130" height="22" viewBox="0 0 130 22" fill="none" xmlns="http://www.w3.org/2000/svg">
<g id="Logo">
<g id="FSW BARBER">
<path d="M25.3397 19.7763L25.3391 2.2286L30.14 1.50384L32.9201 1.50402L32.9199 4.56908L28.4826 4.5688L28.4823 9.51154L32.9197 7.27516L32.9195 10.6992L28.4821 12.9632L28.4821 20.4002L25.3397 19.7763Z" fill="white"/>
<path d="M34.4911 4.12737C34.4912 2.44297 35.4283 1.50418 37.0268 1.50428L40.527 1.5045C42.1255 1.50461 43.0901 2.44351 43.09 4.12791L43.09 4.59734L39.9204 6.25392L39.9205 4.54191L37.633 4.54176L37.6327 9.37406L43.0899 6.55787L43.0891 18.0449C43.089 19.7293 42.1243 20.6681 40.5258 20.668L37.0256 20.6678C35.4271 20.6677 34.4901 19.7288 34.4902 18.0444L34.4903 16.2495L37.6323 14.6206L37.6321 17.6304L39.9197 17.6305L39.9201 11.6109L34.4904 14.4547L34.4911 4.12737Z" fill="white"/>
<path d="M53.9092 1.50535L53.9082 17.6038L56.1958 17.6039L56.1968 1.5055L59.3662 1.5057L59.3652 17.9907C59.3651 19.8132 58.4831 20.6691 56.609 20.669L54.1561 20.6689C53.0261 20.6688 52.3647 20.006 52.3647 18.8187C52.3647 20.006 51.6756 20.6687 50.5456 20.6686L47.8998 20.6685C46.3013 20.6684 45.3643 19.7295 45.3644 18.0451L45.3654 1.50481L48.5073 1.50501L48.5063 17.6035L50.8214 17.6036L50.8224 1.50516L53.9092 1.50535Z" fill="white"/>
<path d="M72.6793 8.32698L72.6796 4.46115L70.144 4.46099L70.1437 9.56941L72.6793 8.32698ZM75.7109 10.481L75.7104 18.0194C75.7103 19.8142 74.8007 20.6702 72.899 20.6701L67.1113 20.6697L67.1125 1.50619L73.1483 1.50657C74.7468 1.50668 75.7114 2.44558 75.7113 4.12998L75.711 8.1615C75.7109 9.40409 75.3251 10.1496 74.3604 10.4809L75.7109 10.481ZM72.6787 17.6878L72.6791 11.5301L70.1435 12.8001L70.1432 17.6877L72.6787 17.6878Z" fill="white"/>
<path d="M86.5838 20.6709L83.4419 20.6707L83.4424 12.5525L81.1272 13.7397L81.1268 20.6706L77.9848 20.6704L77.9859 4.13013C77.986 2.44573 78.9231 1.50694 80.5216 1.50704L84.0218 1.50726C85.6204 1.50737 86.5849 2.44627 86.5848 4.13067L86.5838 20.6709ZM83.4426 9.18367L83.4429 4.54467L81.1278 4.54452L81.1274 10.3157L83.4426 9.18367Z" fill="white"/>
<path d="M94.3699 9.23959L94.3702 4.54536L92.0552 4.54522L92.0548 10.3992L94.3699 9.23959ZM97.5117 11.007L95.1966 12.1943L98.7789 20.6717L95.4992 20.6715L92.5231 13.5747L92.0546 13.8232L92.0541 20.6713L88.9122 20.6711L88.9134 1.50757L94.9492 1.50796C96.5477 1.50806 97.5123 2.44697 97.5122 4.13137L97.5117 11.007Z" fill="white"/>
<path d="M105.327 8.32906L105.327 4.46322L102.792 4.46306L102.791 9.57149L105.327 8.32906ZM108.358 10.4831L108.358 18.0215C108.358 19.8163 107.448 20.6723 105.547 20.6721L99.7588 20.6718L99.7601 1.50826L105.796 1.50865C107.394 1.50875 108.359 2.44765 108.359 4.13205L108.359 8.16357C108.358 9.40616 107.973 10.1517 107.008 10.483L108.358 10.4831ZM105.326 17.6899L105.327 11.5322L102.791 12.8022L102.791 17.6897L105.326 17.6899Z" fill="white"/>
<path d="M118.212 20.6729L110.632 20.6725L110.634 1.50895L118.213 1.50943L118.213 4.57449L113.775 4.57421L113.775 9.51696L118.212 7.28058L118.212 10.7046L113.775 12.9686L113.774 17.6076L118.212 17.6079L118.212 20.6729Z" fill="white"/>
<path d="M125.591 9.24157L125.591 4.54734L123.276 4.5472L123.276 10.4012L125.591 9.24157ZM128.733 11.009L126.418 12.1962L130 20.6737L126.72 20.6735L123.744 13.5767L123.276 13.8252L123.275 20.6733L120.133 20.6731L120.134 1.50956L126.17 1.50994C127.769 1.51004 128.733 2.44895 128.733 4.13335L128.733 11.009Z" fill="white"/>
<path d="M25.3397 19.7763L25.3391 2.2286L30.14 1.50384L32.9201 1.50402L32.9199 4.56908L28.4826 4.5688L28.4823 9.51154L32.9197 7.27516L32.9195 10.6992L28.4821 12.9632L28.4821 20.4002L25.3397 19.7763Z" fill="#8162FF"/>
<path d="M34.4911 4.12737C34.4912 2.44297 35.4283 1.50418 37.0268 1.50428L40.527 1.5045C42.1255 1.50461 43.0901 2.44351 43.09 4.12791L43.09 4.59734L39.9204 6.25392L39.9205 4.54191L37.633 4.54176L37.6327 9.37406L43.0899 6.55787L43.0891 18.0449C43.089 19.7293 42.1243 20.6681 40.5258 20.668L37.0256 20.6678C35.4271 20.6677 34.4901 19.7288 34.4902 18.0444L34.4903 16.2495L37.6323 14.6206L37.6321 17.6304L39.9197 17.6305L39.9201 11.6109L34.4904 14.4547L34.4911 4.12737Z" fill="#8162FF"/>
<path d="M53.9092 1.50535L53.9082 17.6038L56.1958 17.6039L56.1968 1.5055L59.3662 1.5057L59.3652 17.9907C59.3651 19.8132 58.4831 20.6691 56.609 20.669L54.1561 20.6689C53.0261 20.6688 52.3647 20.006 52.3647 18.8187C52.3647 20.006 51.6756 20.6687 50.5456 20.6686L47.8998 20.6685C46.3013 20.6684 45.3643 19.7295 45.3644 18.0451L45.3654 1.50481L48.5073 1.50501L48.5063 17.6035L50.8214 17.6036L50.8224 1.50516L53.9092 1.50535Z" fill="#8162FF"/>
</g>
<path id="scissor" fill-rule="evenodd" clip-rule="evenodd" d="M1.81644 4.93827C1.81638 5.76685 2.14583 6.56151 2.73231 7.14743C3.3188 7.73336 4.11426 8.06256 4.94373 8.06261C5.77319 8.06267 6.5687 7.73357 7.15525 7.14771C7.74181 6.56186 8.07136 5.76725 8.07141 4.93867C8.07146 4.1101 7.74201 3.31544 7.15553 2.72951C6.56905 2.14359 5.77358 1.81439 4.94412 1.81433C4.11466 1.81428 3.31915 2.14338 2.7326 2.72923C2.14604 3.31508 1.81649 4.1097 1.81644 4.93827ZM4.94361 9.87663C3.88519 9.87644 2.85478 9.53692 2.00397 8.90802C1.15316 8.27912 0.526877 7.39404 0.217265 6.383C-0.0923466 5.37196 -0.0689399 4.28835 0.284042 3.2916C0.637023 2.29484 1.30094 1.43758 2.17812 0.845918C3.05529 0.25426 4.09941 -0.0405458 5.15685 0.00487441C6.21429 0.0502947 7.22922 0.433543 8.05231 1.09823C8.87541 1.76292 9.46321 2.67396 9.72923 3.6973C9.99526 4.72064 9.92546 5.80226 9.53012 6.78301L11.4751 8.08117C11.4609 8.12661 11.4474 8.1723 11.4348 8.21822L11.124 9.32677L10.4117 9.8024L8.40613 8.46393C7.51424 9.33662 6.29146 9.87672 4.94361 9.87663ZM1.81567 17.062C1.81572 16.2334 2.14527 15.4388 2.73183 14.8529C3.31838 14.2671 4.11389 13.938 4.94335 13.938C5.77281 13.9381 6.56828 14.2673 7.15476 14.8532C7.74124 15.4391 8.07069 16.2338 8.07064 17.0624C8.07059 17.8909 7.74104 18.6855 7.15448 19.2714C6.56793 19.8572 5.77242 20.1863 4.94296 20.1863C4.11349 20.1862 3.31803 19.857 2.73155 19.2711C2.14506 18.6852 1.81561 17.8905 1.81567 17.062ZM4.94347 12.124C3.88598 12.124 2.85638 12.4628 2.00589 13.0906C1.1554 13.7184 0.528851 14.6021 0.218271 15.6118C-0.0923084 16.6216 -0.0705497 17.7043 0.280351 18.7008C0.631253 19.6973 1.2928 20.5551 2.16783 21.1483C3.04286 21.7414 4.08524 22.0387 5.14188 21.9963C6.19852 21.954 7.21371 21.5743 8.03836 20.913C8.86301 20.2517 9.45363 19.3437 9.72349 18.3223C9.99335 17.3009 9.92821 16.22 9.53765 15.2384L30.1658 1.50056L28.2469 1.6586C25.5409 1.94286 22.9205 2.7709 20.5431 4.09292L14.3383 7.53916C14.1053 7.66917 13.9004 7.84406 13.7356 8.05372C13.5707 8.26337 13.4491 8.50361 13.3778 8.76054L12.8672 10.5866L8.42195 13.5553C7.49759 12.6374 6.24683 12.1227 4.94347 12.124ZM14.3137 14.4727L14.3379 14.4868L20.5422 17.9339C22.9194 19.2562 25.5398 20.0846 28.2458 20.3692L27.9686 19.0071L25.3466 17.362L17.6754 12.2256L14.3137 14.4727Z" fill="#8162FF"/>
</g>
</svg>
